<svg width="87" height="85" viewBox="0 0 87 85" xmlns="http://www.w3.org/2000/svg">
    <path d="M74.097 54.355H86.11v2.102H75.297c2.102 3.605 4.805 6.605 8.41 9.008-4.503 3.004-9.91 4.804-15.913 4.804-.903 0-4.805-6.008-5.407-7.207-7.207 12.914-21.02 21.32-36.637 21.32-7.808 0-15.316-2.101-21.62-5.707 3.003-3.605 5.706-7.808 7.808-12.012 3.902 2.102 8.707 3.606 13.812 3.606 36.637 0 36.637-55.855 0-55.855-4.504 0-9.008.902-12.613 3.004A52.697 52.697 0 0 0 5.93 4.805C11.938 1.8 18.543 0 25.75 0c15.617 0 29.43 8.707 36.637 21.32 1.5-2.402 3.305-4.805 5.106-6.906 5.707-.301 11.41 1.5 16.215 4.804-3.606 2.102-6.305 5.106-8.41 8.707h10.811v2.102H74.097c-.902 2.102-1.8 4.504-2.101 6.906h14.113v1.801H71.394v6.906h14.715v2.102H71.996c.3 2.402 1.203 4.504 2.101 6.605v.008zM25.75 16.52c8.707 0 16.516 4.504 21.32 11.41H4.424c4.504-6.906 12.312-11.41 21.32-11.41h.005zm22.523 13.512c.903 2.102 1.801 4.504 2.403 6.906H.527c.601-2.402 1.5-4.804 2.703-6.906h45.047-.005zm2.704 8.707c.3 2.403.3 4.504 0 6.906H.226c-.301-2.402-.301-4.503 0-6.906h50.75zm-.301 9.008c-.602 2.402-1.5 4.504-2.402 6.605H3.226C2.022 52.25 1.124 50.148.522 47.746h50.153zm-3.606 8.707c-4.804 6.906-12.613 11.41-21.32 11.41-9.007 0-16.816-4.504-21.32-11.41h42.645-.005z" fill="#000" fill-rule="evenodd"/>
</svg>
