<svg width="22" height="22" viewBox="0 0 22 22" xmlns="http://www.w3.org/2000/svg">
    <g fill="none" fill-rule="evenodd">
        <path d="M15.635 6.323a5.096 5.096 0 1 1-10.192 0 5.096 5.096 0 0 1 10.192 0"/>
        <path d="M15.635 6.323a5.096 5.096 0 1 1-10.192 0 5.096 5.096 0 0 1 10.192 0z" stroke="#231F20" stroke-width="2"/>
        <path d="M2.22 20.66c.796-3.487 4.235-6.111 8.356-6.111 4.122 0 7.56 2.624 8.355 6.112"/>
        <path d="M2.22 20.66c.796-3.487 4.235-6.111 8.356-6.111 4.122 0 7.56 2.624 8.355 6.112" stroke="#231F20" stroke-width="2"/>
    </g>
</svg>
